<?xml version="1.0" encoding="UTF-8"?>
<svg xmlns="http://www.w3.org/2000/svg" viewBox="0 0 512 512">
  <defs>
    <style>
      .cls-1 {
        fill: #fff;
      }
    </style>
  </defs>
  <g id="_レイヤー_2" data-name="レイヤー 2">
    <rect width="512" height="512"/>
  </g>
  <g id="_レイヤー_1" data-name="レイヤー 1">
    <path class="cls-1" d="M100.31,111.57l72.01,100.78-5.39,13.56c-6.67,27.37-20.31,55.68-26.31,82.9-3.32,15.05.65,27.14,13.75,35.46,37.39,13.29,75.45,27.03,113.68,38.11,23.25,6.74,39.35,2.06,48.12-21.65s15.89-48.58,23.35-72.12c.83-2.62,1.01-5.38,2.04-7.92l137.89-53.73c-5.63,20.73-12.43,41.2-19.04,61.65-16.18,50-32.28,100.3-50.3,149.56-6.82,9.95-16.45,13.96-28.45,12.62-112.71-37.39-225.69-74.84-337.59-114.34-8.74-5.46-12.62-16.56-10.04-26.41L98.95,112l1.36-.42Z"/>
    <path class="cls-1" d="M337.37,261.24c-3.33-8.52-12.22-9.9-19.98-12.35,2.98-13.41,10.05-27.01,10.99-40.8,4.12-60.26-72.72-86.36-105.95-36.58-8.02,12.02-10.49,27.56-15.71,40.96l-12.53-2.11-86.65-120.13c-.07-12.29,14.61-20.25,25.75-16.1,109.02,35.16,219.44,66.41,328.15,102.49,7.09,2.35,19.58,5.02,23.65,11.38,2.64,4.13,5.02,13.77-.34,16.41l-147.37,56.82Z"/>
    <path class="cls-1" d="M291.88,239.94l-61.06-18.49,6.52-19.92c3.22-4.05,3.76-8.99,6.42-13.5,9.75-16.56,30.4-21.37,45.78-9.14,20.04,15.94,8.89,41.14,2.35,61.05Z"/>
    <path class="cls-1" d="M238.9,262.85c21.26-2.9,34.74,24.96,17.29,37.21-2.07,1.45-8.2,3.07-8.75,4.3-1.95,9.85-2.5,20.05-4.45,29.89-.3,1.5-.37,3.91-2.16,3.97l-28.5-10.02,16.32-29.59c-5.46-7.41-8.5-13.83-5.24-23.07,2.26-6.39,8.7-11.75,15.48-12.68Z"/>
  </g>
</svg>